<svg id="グループ_1" data-name="グループ 1" xmlns="http://www.w3.org/2000/svg" viewBox="0 0 300.18 300.06"><defs><style>.cls-1{fill:#FCFF4B;}.cls-2{fill:#fdd493;}.cls-3{fill:#454545;}.cls-4{fill:#4f4d49;}.cls-5{fill:#4e4c49;}.cls-6{fill:#484746;}.cls-7{fill:#5a4a40;}.cls-8{fill:#b38851;}.cls-9{fill:#b28851;}.cls-10{fill:#464645;}.cls-11{fill:#fd8380;}.cls-12{fill:#fd8480;}.cls-13{fill:#fd8280;}.cls-14{fill:#fdcbb2;}.cls-15{fill:#f5c5ad;}.cls-16{fill:#f1c3ab;}</style></defs><title>cat_img_1543330033589</title><g id="レイヤー_1.svg_画像" data-name="レイヤー 1.svg 画像"><path class="cls-1" d="M26,301H1Q1,152.83.91,4.67C.9,1.35,1.9.93,4.83.94Q151,1,297.17.94c2.93,0,3.93.41,3.92,3.73Q300.93,152.84,301,301H276a7.6,7.6,0,0,1-1.92-4.53c-1.21-8-5.54-14.13-11.46-19.35-1.67-1.47-4.36-2.86-2.49-5.64a6.14,6.14,0,0,1,7.51-2.41c3.47,1.16,6.41,3.46,10,4.5a97.5,97.5,0,0,0-13.37-8,39.61,39.61,0,0,1-7.79-4.47c-2.26-1.85-2.8-3.9.05-5.57a89,89,0,0,0,14.85-11c1.81-1.65,3.89-1.59,6.09-.76a69.82,69.82,0,0,0,9.93,3.47c-2.52-2-5.64-2.88-8.47-4.25-2.48-1.2-3.89-2.48-2.05-5.31s-.1-4.27-2.28-5.5c-5.63-3.15-9.82-8-14.16-12.55-3.26-3.46-2.91-5.2,1.14-7.95a76.68,76.68,0,0,0,6.4-4.79c2.35-2,2.66-3.74-.32-5.36-.44-.23-.84-.55-1.28-.78-4.94-2.61-6.38-6.57-5.56-12.07,1.9-12.68,3.95-25.34,5.42-38.08,2.9-25,6.31-49.88,5.48-75.12a45.53,45.53,0,0,0-2.45-14.71c-2-5.31-4.68-6.64-10.15-5.13S248.63,59.94,243.85,63c-16.45,10.6-30.91,23.71-45.78,36.3-6.87,5.8-13.23,12.17-20.1,18-3.29,2.77-4.15,2.53-4.69-1.75-.4-3.14-2.07-3-4.19-2.28-5,1.64-9.18,4.77-13.25,7.91-3.5,2.69-6.25,2.68-9.73,0a49.24,49.24,0,0,0-12.32-7.56c-2.61-1-5-1.52-5.19,2.55-.11,2.29-1.56,2.23-3.16,1.48-2.79-1.31-4.7-3.68-6.91-5.69C99.14,94.34,79.81,76.72,57.78,62.42c-4.5-2.92-9.12-5.56-14.35-6.93-5-1.29-6.93-.39-9.29,4.21a28.94,28.94,0,0,0-2.82,12.57c-.77,24.21,1.54,48.2,4.51,72.19,1.84,14.88,4,29.7,6.24,44.52.81,5.51-1.89,8.77-6,11.57-5,3.41-5,3.92-.3,7.77,1.42,1.17,2.95,2.18,4.46,3.21,4.44,3,4.69,4.69.89,8.65C37,224.5,32.94,229,27.69,232.11c-2.39,1.41-4,3.06-2.19,6,1.38,2.3.25,3.71-1.86,4.73-3,1.45-6.28,2.22-9,4.44a34.91,34.91,0,0,0,9.18-3.21c3.29-1.6,5.91-1.24,8.45,1.62,3.24,3.63,7.37,6.21,11.52,8.71,4.85,2.93,4.89,5.37-.23,8.07-5.45,2.88-10.8,5.93-16.26,8.8a7.2,7.2,0,0,0-3.14,2.56c3.21-.61,5.17-2.53,7.5-3.63,2.12-1,4.17-2.07,6.66-1.27,4.29,1.37,5.53,4.7,2.23,7.25A34.65,34.65,0,0,0,27,299.3,3.67,3.67,0,0,1,26,301Z" transform="translate(-0.91 -0.94)"/><path class="cls-2" d="M207,301H95a6.78,6.78,0,0,1-2.31-4.8c-.78-7.21-4.84-12.63-9.78-17.47-5.31-5.2-5.38-5.12.6-9.09.07-.35-.17-.61-.57-.42-5.61,2.7-11.24,2.76-17.34,1.37-4.27-1-8.93-.59-13.38.21a11.48,11.48,0,0,1-3,.29C47,270.9,44.67,270.38,44,268s1.43-3.59,3.12-4.58c5.22-3,11.1-4.37,16.83-6.06,4.76-1.4,9.73-1.92,14.41-3.72a75.6,75.6,0,0,0-18,3.39c-3.87,1.18-6.86.45-8.83-3.27-.25-2.55,1.83-2.8,3.47-3.44,2.58-1,5.4-1.54,7.71-3.91-2.06-2.31-4.77-1.85-7.24-2-6.56-.44-13.2.82-19.72-.79-1.67-3.39,1.39-3.42,3.06-3.83,7.77-1.89,15.63-3,23.64-1.68a34,34,0,0,0,6.9.56A43.16,43.16,0,0,0,49,236.83c-4.43.56-8.83,1.45-13.2,2.42-2.86.63-6.17,1.16-7-2.48-.78-3.37,2.45-4.15,5-5,9.49-1.66,19.24-1.46,28.64-3.88a22.54,22.54,0,0,0,5.2-1.67c2.84-2.1,3.44-5.56,5-8.41a29.08,29.08,0,0,1,15.11-13.63c1.5-.58,3.07-1.46,4.64-.07,1,1.56.53,3.2.28,4.84-1.15,7.59.23,14.88,2.63,22a12.83,12.83,0,0,0,1,2.28c1.91,3.44,4.19,6.76,8.52,6.79s6.64-3.33,8.44-6.81a32.13,32.13,0,0,0,3.36-12.42c.14-1.78-.15-3.73,1.6-5,2.63-.39,3.56,2.84,5.86,2.95a1.13,1.13,0,0,0,.23-1.83c-6.23-7.33-13.33-13.41-22.93-16-11.84-3.15-25.82,4.24-31.8,16.89-1,2.19-1.41,4.91-4.33,5.69-6.18-1.29-12.88-.1-18.57-3.81,2.59-5.88-.94-8.17-5.55-10.6-5.56-2.93-5.58-4.84-.84-8.64,8.78-7.06,14.94-16.46,22.43-24.66,2-2.19,1.49-4.18-.41-6.13-2.09-2.14-4.29-4.18-6.29-6.4-1.08-1.19-2.71-2.38-2-4.23s2.53-2,4.2-2.24A92.28,92.28,0,0,0,84,149.22c4.83-2.17,5-2.77,1.84-7.24-1.34-1.9-2.67-3.82-4-5.74-.75-1.09-1.75-2.26-1.11-3.63.71-1.53,2.3-1,3.57-1,5.33.08,10.57,1.08,15.86,1.57,1.16.11,2.3.37,3.46.44,7,.42,7.63-.45,5.5-7.21-.67-2.12-2.72-4.72-.64-6.45s4.77,0,7.1.79a5,5,0,0,1,3.3,2.85c2.37,15.47,4.39,31,7.57,46.31a207,207,0,0,0,5.92,22.85,21.29,21.29,0,0,0,2.1-10c-.09-14.31-1.25-28.56-2.5-42.81-.31-3.49-.73-6.95,0-10.42,1.63-3,1.33-6,.54-9.16-.31-1.25-.58-2.72.85-3.57a2.92,2.92,0,0,1,3.26.5c3.07,2.13,6.94,3.36,8.44,7.32.2,9.65,1.3,19.25,1.45,28.91a264,264,0,0,0,2.81,33.32c.24,1.63.31,3.33,1.62,5,1.8-1.4,1.71-3.5,1.94-5.27,1.27-9.57,2.06-19.18,2.66-28.83.69-11,.55-22,1.35-32.91,1.67-4,5.18-5.87,8.76-7.51,3.13-1.44,4.31-.47,3.65,3.06-.58,3.14-1,6.15.6,9.1,1.39,8-.81,15.87-1,23.81-.29,10-1.49,19.88-1.41,29.85a21,21,0,0,0,1.64,8.71c1.93-2,2.15-4.29,2.69-6.4,4.95-19.36,8.15-39.05,10.67-58.85a14.64,14.64,0,0,1,.54-2.94,4.83,4.83,0,0,1,3.22-2.9c2.48-.78,5.32-2.65,7.51-.67s-.25,4.31-.95,6.4c-2.15,6.51-1.39,7.65,5.62,7.06,6.28-.54,12.51-1.74,18.82-2,1.39,0,3.21-.8,4,1,.67,1.56-.49,2.87-1.29,4.1-1.37,2.09-2.91,4.05-4.43,6-2.15,2.78-1.79,4.63,1.61,6.1,8.28,3.58,16.73,6.52,25.69,7.81,2,.28,4.39.32,5.1,2.44s-1.37,3.57-2.73,4.94c-10.7,10.71-8.78,7.83-.31,18.21,5.54,6.8,11,13.72,18,19.28,3.29,2.62,3,3.93-.42,6.59a6.14,6.14,0,0,1-1.65,1.11c-5.13,1.8-7.89,4.81-5.58,10.54-6.18,2.68-12.74,2.93-19.31,3.09-2.33-.89-2.55-3.27-3.6-5.1-6.19-10.72-14.61-17.9-27.83-17.58-4.86.12-9.1,2.06-13,4.52a55.89,55.89,0,0,0-15.08,13.79c3.61.44,4.66-3,7.17-2.8,2.09,1.3,1.58,3.48,1.78,5.4.54,5,1.7,9.87,4.54,14.13,4.25,6.39,10.27,6.62,14.36.13,5-7.89,6-16.79,5.1-25.95-.18-1.81-.84-3.61.23-5.36,1.76-1.5,3.49-.46,5.09.24,8.47,3.75,14.31,9.87,16.66,19,.26,3.26,2.8,3.71,5.25,4.33,10.34,2.63,21,2.66,31.52,4.09a7.3,7.3,0,0,1,3.2,1.32c1.24.91,2.51,1.92,2,3.67a3.86,3.86,0,0,1-4.18,2.88c-3.17-.15-6.23-1.08-9.32-1.72-9.09-1.89-18.12-2.21-27.09.64a29.63,29.63,0,0,0,7.46-.55c7.9-1.19,15.63,0,23.26,1.87,1.52.38,4.53.4,2.91,3.65-6.48,1.78-13.11.47-19.66.84-2.46.14-5-.07-7.37.61-.76.22-1.74.39-1.81,1.38s.82,1.36,1.53,1.75a35.52,35.52,0,0,0,6.5,2.35c1.87.58,3.93.9,4.77,3.08-1.34,4.4-4.46,4.87-8.27,3.67a74.9,74.9,0,0,0-18.89-3.56c8,2.14,16.12,3.64,24,6.23,3.19,1.05,6.28,2.18,8.89,4.34,1.14.94,2.5,1.95,2.06,3.67s-2.06,2.5-3.7,3a11.11,11.11,0,0,1-4.45,0c-6.46-.76-12.93-1.23-19.26.79-4.48,1.43-7.88-2-11.84-2.47-.45.37-.44.66-.06.89,5.64,3.41,5.78,4.14.63,8.27-5.33,4.26-8.29,9.84-9.85,16.31C209,296.89,208.86,299.29,207,301Z" transform="translate(-0.91 -0.94)"/><path class="cls-3" d="M255,219c-.71-1.12-1.39-2.25-2.13-3.35-1.61-2.39-1.2-4,1.7-4.81,3.91-1.14,7.1-3.48,10.37-6.18-11.16-8.08-18.56-19.27-27.58-29-1.84-2-1.7-3.71.19-5.6,3.39-3.4,6.66-6.92,10.58-11-3.81-.73-6.93-1.34-10.07-1.92-8.06-1.49-15.52-4.71-23.07-7.75-3.63-1.46-3.54-3.31-1.49-6,2.48-3.29,4.84-6.68,7.89-10.92-9,.91-17.15,1.82-25.3,2.54-6.44.56-6.82.06-5.18-6.06.72-2.7,1.68-5.35,2.67-8.44-3.45.4-6.63.8-9.53,2.49-4.78,2.71-9.13,6.45-15.13,6.14-2.88-1.09-2-3.36-1.62-5.42s1-4.09,1.7-6.75c-4.47,1.83-7.69,4.48-11,7-3.68,6.72-10.85,6.23-14,0a55,55,0,0,0-11.08-7.21c.74,2.89,1.37,5.13,1.85,7.39.42,1.94.91,4-1.76,4.89-6,.47-10.31-3.4-15.08-6.06-2.74-1.71-5.87-1.94-9.37-2.57,1.06,3.43,2,6.54,3,9.63,1.28,4,.12,5.63-4.23,5.13-8.55-1-17.13-1.77-26.64-2.73,3,4.17,5.42,7.7,8,11.1,2.25,2.95,1.52,4.6-1.8,5.95-9.56,3.91-19.11,7.79-29.53,8.76a18.71,18.71,0,0,0-3.25,1c3.64,3.83,6.88,7.37,10.28,10.76,1.85,1.86,2.28,3.59.41,5.61-9,9.72-16.45,21-27.51,29a19.75,19.75,0,0,0,8.77,5.72c5,1.43,4.81,3.73,2,7.08A14.52,14.52,0,0,0,47,219.05a24.58,24.58,0,0,1-13.08,13.76c-.3.13-.7.17-.91.39-1.12,1.2-4.13,1-3.41,3.4.82,2.77,3.14,2,5.36,1.48,7.26-1.82,14.58-3.17,22.14-3a88.84,88.84,0,0,1,12.82,1.65c1.41.24,3.45.1,3.18,2.24-.32,2.46-2.37,1.77-3.95,1.47a72.17,72.17,0,0,0-29.67.45c-1.43.31-3,.3-4,1.54-.06.08,0,.3.05.41a1.68,1.68,0,0,0,.37.33c5.41,3.53,10.69,7.26,16.15,10.72,3.16,3.34,6.59,2.45,10.49,1.23,5-1.58,10.35-2.31,15.53-3.48,1.61-.37,3.24-.45,3.69,1.35.56,2.22-1.58,2.25-2.9,2.48a179.27,179.27,0,0,0-25.09,6.33,22.27,22.27,0,0,0-9.49,5.55c2.34,2.38,4.69,2.91,8,2.13,5.51-1.31,11.37-1.7,16.73.24,4.47,1.62,8,.29,11.84-1.3,1.7-.69,4.34-3.18,5.54-.16S83.92,271,82.28,272a36.67,36.67,0,0,1-3.52,1.57C88.65,280.39,94.09,289.43,95,301H90c-1.88-1.46-2.09-3.65-2.62-5.74-2.8-10.87-13.25-19.53-24-19.93-15-.56-25.31,5.71-29.58,17.77-.93,2.64-.94,5.61-2.82,7.9H26c.16-12.3,6.6-20.92,16.63-27.8-3.17-3.08-6.07-5-10.26-1.84a49.65,49.65,0,0,1-7,3.87c-1.18.62-2.56,1.41-3.4-.34-.72-1.53.25-2.37,1.6-3.07C29.05,269,34.43,266,39.89,263.2c2.66-1.36,5.35-2.61,7.21-5.64a47.34,47.34,0,0,1-16.78-12.19c-1.46-1.65-2.8-1.31-4.43-.62-3.07,1.29-6.13,2.61-9.26,3.74-1.56.56-3.71,2.4-4.78,0S13.47,245.68,15,245c3.47-1.51,7-2.9,10.54-4.35-3.93-6.27-3.92-6.27,2.48-10.39,5.09-3.28,9.22-7.62,13.33-12,2-2.14,2.33-3.52-.77-5.18s-6-4.16-8.9-6.39c-2.69-2.07-2.74-4,.57-5.56,1-.49,2.08-1,3.09-1.61,4.52-2.51,6.11-5.7,5.26-11.37-5.12-34.24-10.35-68.49-11-103.21-.13-7.17-.06-14.34,1.47-21.39,2.11-9.66,6.22-12.14,15.37-8.45,14.26,5.74,26,15.42,37.67,25.1,13.58,11.28,27.1,22.65,39.87,34.86,1.07,1,2.26,1.91,3.49,3,.75-2.21-2-4.57.52-6.19s4.87-.09,7.07.88a57.23,57.23,0,0,1,13.05,8.23c2,1.66,3.57,1.69,5.63,0a58.67,58.67,0,0,1,12.61-8c2.34-1.08,4.94-2.78,7.5-1.09s-.43,4.3.46,6.89c8.78-7.81,17.31-15.64,26.09-23.16C214,84,227.25,72,242.36,62.43c5.77-3.67,11.6-7.14,18.38-8.74,3.85-.9,6.45.4,8.36,3.63,3.19,5.36,3.65,11.38,3.86,17.36.82,22.55-1.62,44.91-4.43,67.22-2,15.69-4,31.38-6.56,47-1,5.93,1.08,9.38,6,11.3,5.95,2.3,5.38,5,.54,8.07-2.25,1.42-4.14,3.48-6.51,4.59-3.43,1.6-3.63,3.13-1.08,5.76,4.19,4.31,8.33,8.62,13.43,11.9,6.12,3.93,6.11,3.95,2.14,10.14,3.84,1.59,7.67,3.08,11.42,4.75,1.22.55,3.26.93,2.49,3s-2.56,1.3-3.75.53c-8.75-5.65-16.2-4.9-23,3.55-1.93,2.42-5.55,3.49-8.6,5.3,1.52,2.66,4.16,4,6.81,5.36q8,4.11,15.91,8.37c1.36.73,3.62,1.4,2.4,3.51s-3,.41-4.36-.24a32.45,32.45,0,0,1-5.24-2.88c-3.91-2.81-7.5-3-11,1.34,9.71,6.56,15.75,15.62,16.39,27.78h-5c-1.56-1.45-1.88-3.43-2.34-5.38-3.07-12.92-14.07-20.57-29.15-20.3a26.33,26.33,0,0,0-25.18,20.89c-.37,1.84-.81,3.55-2.33,4.79h-5c.84-11.51,5.92-20.63,15.76-27.05-1.66-1.88-3.78-1.93-5.42-2.88-1.17-.68-2.47-1.39-1.7-3a2,2,0,0,1,3-.69c5.91,4,12.07,3,18.53,1.69a27.85,27.85,0,0,1,13.83.8c2.72.88,4.74-.6,6.93-2.36-6.28-6.28-14.67-7.1-22.35-9.42-4.12-1.25-8.47-1.72-12.71-2.62-1.25-.26-3-.5-2.57-2.35s1.93-1.83,3.56-1.45c5.51,1.27,11.12,2.16,16.52,3.77,3.65,1.09,6.83,2,9.6-1.47,5.41-3.53,10.74-7.18,16.15-10.72.38-2.6-1.79-1.93-3-2.19a73.08,73.08,0,0,0-29.64-.68c-1.62.31-4,1.57-4.39-1.29-.33-2.38,2.12-2.07,3.61-2.42,11.27-2.65,22.4-1.6,33.47,1.2,2.27.57,5.34,2.32,6.24-1.26.65-2.6-2.75-2.59-4.33-3.76C262.19,229.69,257.42,225.48,255,219Z" transform="translate(-0.91 -0.94)"/><path class="cls-2" d="M31,301c1.07-15.41,12.39-26.59,27.59-27.25,16-.69,28.37,9.26,30.9,24.82.13.81.34,1.62.51,2.43H74c-2.3-2.26-.45-5.8-2.46-8.6-2.13,2.78-.23,6.34-2.54,8.6H52c-2.31-2.26-.45-5.81-2.46-8.6-2.13,2.78-.23,6.34-2.54,8.6Z" transform="translate(-0.91 -0.94)"/><path class="cls-2" d="M212,301c.91-11,6.13-19.17,16.07-24.12,19.1-9.5,41.77,2.77,42.93,24.12H255c-2.34-2.3-.43-5.8-2.63-8.74-1.92,2.82,0,6.47-2.37,8.74H233c-2.34-2.3-.43-5.8-2.63-8.74-1.92,2.82,0,6.47-2.37,8.74Z" transform="translate(-0.91 -0.94)"/><path class="cls-4" d="M250,301c0-2.81-.13-5.62-.09-8.42,0-1.48.74-2.61,2.4-2.55a2.4,2.4,0,0,1,2.49,2.54c.11,2.81.14,5.62.2,8.43Z" transform="translate(-0.91 -0.94)"/><path class="cls-5" d="M228,301c-.05-2.63-.16-5.26-.13-7.89,0-1.56.38-3.13,2.39-3.05,1.81.06,2.51,1.4,2.58,3,.1,2.63.11,5.27.16,7.9Z" transform="translate(-0.91 -0.94)"/><path class="cls-6" d="M47,301c0-2.63,0-5.25,0-7.87,0-1.6.69-3.12,2.48-3.09S52,291.43,52,293.12c0,2.63,0,5.25,0,7.88Z" transform="translate(-0.91 -0.94)"/><path class="cls-6" d="M69,301c0-2.63,0-5.25,0-7.87,0-1.6.69-3.12,2.48-3.09S74,291.43,74,293.12c0,2.63,0,5.25,0,7.88Z" transform="translate(-0.91 -0.94)"/><path class="cls-7" d="M210.16,204.08c1.1,9.14,1.36,18.18-2.07,27-2,5.2-4.65,10.32-10.62,10.63-6.24.32-8.65-5.12-11-10.06s-1.82-10.35-3.41-15.37c-.06-.15-.21-.34-.17-.45,3.23-7.68,18.93-15,26.55-12.43A1.84,1.84,0,0,1,210.16,204.08Z" transform="translate(-0.91 -0.94)"/><path class="cls-7" d="M119,216.22c-1.55,5.2-1.13,10.81-3.59,15.85-2.34,4.78-4.79,9.94-10.79,9.66-5.77-.26-8.49-5.11-10.49-10.14-3.55-9-3.43-18.18-2.25-27.5,3-2.39,6.34-1.6,9.48-.79,6.78,1.76,12,6.2,17.12,10.7A1.73,1.73,0,0,1,119,216.22Z" transform="translate(-0.91 -0.94)"/><path class="cls-8" d="M118,123c5.57.67,9.83,4.6,15.08,6.06.76,13.08,1.3,26.18,2.38,39.23a105.39,105.39,0,0,1-.45,23.82c-.17,1.23-.17,3-1.84,3-1.23.06-1.76-1.34-2.2-2.43-2.55-6.34-3.88-13-5.3-19.66-3.22-15.07-5.46-30.31-7.56-45.56A37.25,37.25,0,0,1,118,123Z" transform="translate(-0.91 -0.94)"/><path class="cls-9" d="M168.92,129.17c5.22-1.62,9.55-5.41,15.13-6.14a387.76,387.76,0,0,1-12,67.36,10.74,10.74,0,0,1-.7,1.86c-.64,1.3-1.11,3.28-2.86,2.89-1.17-.25-1.26-2.11-1.48-3.46-2.1-12.93.18-25.81.55-38.71C167.75,145,169.49,137.17,168.92,129.17Z" transform="translate(-0.91 -0.94)"/><path class="cls-9" d="M144,124c6.9,4.83,6.9,4.83,14,0,0,21.91-.67,43.78-4.05,65.47-.35,2.23-.41,5.84-2.62,5.9-3,.09-2.81-3.77-3.09-5.93-1.29-10-2.49-20.06-3.1-30.13C144.45,147.59,144.37,135.79,144,124Z" transform="translate(-0.91 -0.94)"/><path class="cls-10" d="M119,216.22c-7.78-6.87-15.52-13.8-27.12-12.13-9.34,2.4-15.65,8.24-19.45,17-.9,2.07-1.09,4.59-3.39,5.86-3.7.69-4.26-1-3-4,2.44-5.25,4.76-10.51,9-14.72,11.48-11.38,26.27-12.46,39.16-2.7a94.65,94.65,0,0,1,11,10.12c1.25,1.3,2.89,2.71.79,4.56-1.85,1.63-3,0-4.16-1.13C120.75,218.16,119.87,217.18,119,216.22Z" transform="translate(-0.91 -0.94)"/><path class="cls-10" d="M210.16,204.08c-11.55-1.51-19.48,5-27.1,12.21-1.16,1.18-2.25,2.45-3.51,3.51-1,.84-2.11,1.72-3.49.4a2.27,2.27,0,0,1-.1-3.52c9.1-9.37,18.24-19.13,32.93-17.56,13.49,1.45,21.5,10.09,26.25,22.23.07.15.12.31.18.46,1.23,1.29,2,2.69.88,4.44a2.85,2.85,0,0,1-3,1.22c-2.76-.36-2.51-2.65-2.9-4.53C226.8,213.21,220.27,206.73,210.16,204.08Z" transform="translate(-0.91 -0.94)"/><path class="cls-8" d="M230.26,222.94c1.27,1.38,1,4.82,4.2,3.58,2.42-.93,1.24-3,.86-4.71A111.58,111.58,0,0,0,255,219c3.79,5.14,8.61,9.31,13.11,13.77-11.33-.6-22.63-1.39-33.7-4.12C231.41,228,229,226.74,230.26,222.94Z" transform="translate(-0.91 -0.94)"/><path class="cls-9" d="M65.94,222.94c-.08,2.18.55,3.8,3,4-7.26,4.06-15.48,3.68-23.33,4.95-3.87.62-7.83.62-11.76.9A93.65,93.65,0,0,0,47,219C53,221.76,59.86,220.45,65.94,222.94Z" transform="translate(-0.91 -0.94)"/><path class="cls-9" d="M266.15,243.21A31.55,31.55,0,0,1,250,253.93c-3.6-2.9-8.57-2.33-12.29-4.85-1.29-.86-3.6-1.09-3.35-3.18s2.47-1.93,4-2.16C247.6,242.33,256.88,243,266.15,243.21Z" transform="translate(-0.91 -0.94)"/><path class="cls-9" d="M52,253.91a31,31,0,0,1-16.15-10.72c8.92-.17,17.86-1,26.73.73,1.31.25,2.85.35,3.07,2s-1.39,2.13-2.53,2.62c-2.88,1.25-5.8,2.4-8.76,3.42C53.24,252.31,52,252.34,52,253.91Z" transform="translate(-0.91 -0.94)"/><path class="cls-6" d="M140.08,271.65c-3.79,0-8.31-4-9.05-7.67-.21-1-.24-2.07.75-2.64s1.92.06,2.55.88a20.63,20.63,0,0,1,1.27,2.13c2.14,3.59,5,4.17,8.32,1.76a37.86,37.86,0,0,0,4.59-3.79c1.75-1.74,3.28-1.95,5.08-.08a27.19,27.19,0,0,0,3.78,3.23c4.46,3.19,6.23,2.86,9.41-1.54.89-1.22,1.4-3.75,3.5-2.44s.72,3.21-.2,4.83c-3.53,6.17-10,7-15.87,1.62-2.26-2.07-3.52-2.73-5.86-.19C146.2,270.09,143.11,271.16,140.08,271.65Z" transform="translate(-0.91 -0.94)"/><path class="cls-11" d="M151,245.47c.95-2.66,1.94-5.61,3.08-8.5.41-1.06,1.17-2.17,2.59-1.45s1.12,1.75.68,3c-1,2.77-1.84,5.6-2.86,8.36-.38,1-.89,2.34-2.41,1.87S151.09,246.86,151,245.47Z" transform="translate(-0.91 -0.94)"/><path class="cls-12" d="M149.25,238.82c-.78,2.18-1.94,5.47-3.15,8.74a1.6,1.6,0,0,1-1.92,1.2,1.73,1.73,0,0,1-1.16-2.39q1.48-5,3.32-9.89a1.58,1.58,0,0,1,2.42-.92C149.53,236,149.85,236.78,149.25,238.82Z" transform="translate(-0.91 -0.94)"/><path class="cls-13" d="M165.87,237.8c-1.27,3.26-2.59,6.79-4,10.26-.17.4-1.1.71-1.63.66a1.37,1.37,0,0,1-1.1-1.87c1.09-3.59,2.26-7.17,3.54-10.7a1.41,1.41,0,0,1,2.08-.65A2.3,2.3,0,0,1,165.87,237.8Z" transform="translate(-0.91 -0.94)"/><path class="cls-13" d="M141.09,238.31c-1,3.06-2.07,6-3.06,9-.36,1.11-1.06,1.81-2.2,1.43a1.89,1.89,0,0,1-1.25-2.76c1.13-2.94,2.19-5.91,3.33-8.84.36-.92.93-2,2.09-1.75C141.57,235.82,140.83,237.3,141.09,238.31Z" transform="translate(-0.91 -0.94)"/><path class="cls-14" d="M196,129.84c.82-6.15,4.18-10.76,8-14.4,11.54-11.07,23.84-21.31,37.55-29.63,11.21-6.81,13.61-5.42,14.3,7.72.7,13.51-1.07,26.9-2.28,40.32-.5,5.46-1.32,10.89-1.92,16.34-.28,2.55-1.33,3.87-4.16,3.63-9.4-.78-18.13-3.91-26.79-7.37-2.1-.84-1.83-1.85-.74-3.33q3.87-5.2,7.58-10.53c.92-1.31,2.39-2.6,1.29-4.44s-3-1.28-4.53-1.12c-8.44.89-16.86,1.87-25.28,2.79C198.21,129.91,197.38,129.84,196,129.84Z" transform="translate(-0.91 -0.94)"/><path class="cls-14" d="M106.23,130.05l-23.75-2.52a13.41,13.41,0,0,0-2-.3c-2.4.08-5.47-1.62-7,.72-1.88,2.83,1.4,4.71,2.69,6.86,2.12,3.54,7.35,7.17,6.31,10.13-1.32,3.74-7.5,3.79-11.62,5.34a63.89,63.89,0,0,1-15.53,3.48c-2.7.3-3.95-.63-4.25-3.43-2-18.35-4.63-36.65-4.1-55.19a52.72,52.72,0,0,1,.87-7.92c1.11-6.09,2.21-6.8,8-4.17,11.35,5.15,20.6,13.4,30.22,21.06,4,3.22,8.19,6.43,11.54,10.29C101.38,118.76,105,123.51,106.23,130.05Z" transform="translate(-0.91 -0.94)"/><path class="cls-2" d="M256.81,189.79c-3.84-2.6-5.12-5.47-4.34-10.19,4.28-26,7.56-52.12,8.49-78.48a55.78,55.78,0,0,0-1.84-17.3c-2-6.95-4.94-8.42-11.89-6-6.21,2.15-11.45,6-16.8,9.69-9.52,6.47-18.26,13.91-27,21.4-7.64,6.57-7.66,6.55-19.63,8,9.8-8.57,18.82-16.61,28-24.45,12.78-10.93,25.67-21.73,40.31-30.18,11.56-6.67,13.63-5.79,15.3,7.46,1.89,15,.41,29.94-.79,44.85-1.89,23.54-5.52,46.89-8.76,70.28C257.65,186.43,257.19,188,256.81,189.79Z" transform="translate(-0.91 -0.94)"/><path class="cls-2" d="M118.17,116.11c-8.17.27-14.2-2.58-19.74-7.7C86.81,97.68,74.38,87.87,60.53,80.05c-11.17-6.3-15.66-4.33-17.77,8.23-2.19,13-.26,25.9.7,38.82.53,7.13,2.15,14.2,2.33,21.32.26,10.38,3.37,20.27,4.62,30.47.59,4.77-.63,7.52-4.79,10.35-1.12-7.6-2.35-14.74-3.2-21.93-3.28-27.58-7.61-55.06-7.73-82.93,0-6.49-.1-13,1.28-19.39,1.55-7.14,3-8,9.93-5,8.2,3.49,15.23,8.85,22.3,14.12,16.57,12.36,32,26,47.31,39.91C116.35,114.74,117.28,115.4,118.17,116.11Z" transform="translate(-0.91 -0.94)"/><path class="cls-15" d="M247.6,178.77c-6.91-5.07-6.81-6,1.29-12.62C249.46,170.61,248.06,174.53,247.6,178.77Z" transform="translate(-0.91 -0.94)"/><path class="cls-16" d="M53.26,166.4c8,5.89,8,6.1,2.3,12C53.76,174.58,54.25,170.53,53.26,166.4Z" transform="translate(-0.91 -0.94)"/></g></svg>